<svg width="16" height="16" viewBox="0 0 16 16" fill="none" xmlns="http://www.w3.org/2000/svg">
<g id="phone-alt" clip-path="url(#clip0_43_1813)">
<path id="Vector" d="M15.5434 11.3065L12.0434 9.80645C11.8939 9.74273 11.7277 9.72931 11.5699 9.7682C11.4121 9.80708 11.2712 9.89618 11.1684 10.0221L9.61844 11.9158C7.18586 10.7689 5.22819 8.81122 4.08125 6.37864L5.975 4.82864C6.10115 4.72604 6.19044 4.58513 6.22934 4.42725C6.26825 4.26937 6.25466 4.10311 6.19063 3.95364L4.69063 0.453642C4.62035 0.29252 4.49605 0.160969 4.33917 0.0816733C4.18229 0.00237739 4.00266 -0.0196931 3.83125 0.0192674L0.58125 0.769267C0.41599 0.807429 0.268545 0.900479 0.16298 1.03323C0.0574141 1.16598 -3.80691e-05 1.3306 1.89256e-08 1.5002C1.89256e-08 9.51583 6.49687 16.0002 14.5 16.0002C14.6697 16.0003 14.8343 15.9429 14.9672 15.8373C15.1 15.7317 15.1931 15.5843 15.2312 15.419L15.9812 12.169C16.02 11.9967 15.9974 11.8164 15.9175 11.6589C15.8376 11.5015 15.7053 11.3769 15.5434 11.3065Z" fill="white"/>
</g>
<defs>
<clipPath id="clip0_43_1813">
<rect width="16" height="16" fill="white"/>
</clipPath>
</defs>
</svg>
